# xmcd CD database file
#
# Track frame offsets:
#	150
#	22418
#	32825
#	56840
#	82019
#	106765
#	136187
#	161245
#	184219
#	204423
#	221398
#	237808
#	249730
#	265744
#	280659
#	298942
#	315128
#
# Disc length: 4697 seconds
#
# Revision: 0
# Processed by: cddbd v1.5.1PL2 Copyright (c) Steve Scherf et al.
# Submitted via: Feurio! 1.68 - http://www.feurio.com
#
DISCID=f9125711
DTITLE=Rory Gallager - A Blue Day For The Blues
DYEAR=1900
DGENRE=
TTITLE0=Rory Gallagher - I Ain't No Saint
TTITLE1=Rory Gallagher - The Loop
TTITLE2=Rory Gallagher - Calling Card
TTITLE3=Rory Gallagher - As The Crow Flies
TTITLE4=Rory Gallagher - Off The Handle
TTITLE5=Rory Gallagher - Bullfrog Blues
TTITLE6=Rory Gallagher - (Back To My) Stomping Ground
TTITLE7=Rory Gallagher - Empire State Express
TTITLE8=Rory Gallagher - Continental Cop
TTITLE9=Rory Gallagher - Shin Kicker
TTITLE10=Rory Gallagher - Public Enemy # 1
TTITLE11=Rory Gallagher - Pistol Slapper Blues
TTITLE12=Rory Gallagher - Don't Start Me Talkin'
TTITLE13=Rory Gallagher - Nothin' But The Devil
TTITLE14=Rory Gallagher - Alexis
TTITLE15=Rory Gallagher - Barley And Grape Rag
TTITLE16=Rory Gallagher - Pontiac Blues
EXTD=
EXTT0=
EXTT1=
EXTT2=
EXTT3=
EXTT4=
EXTT5=
EXTT6=
EXTT7=
EXTT8=
EXTT9=
EXTT10=
EXTT11=
EXTT12=
EXTT13=
EXTT14=
EXTT15=
EXTT16=
PLAYORDER=
